<svg xmlns="http://www.w3.org/2000/svg" width="524.961" height="110.288" viewBox="0 0 524.961 110.288">
  <g id="Group_5" data-name="Group 5" transform="translate(-589.002 -1021)">
    <g id="Group_12" data-name="Group 12" transform="translate(513.23 421)">
      <g id="Group_1" data-name="Group 1" transform="translate(-748.774 69.042)">
        <rect id="Rectangle_4" data-name="Rectangle 4" width="31.194" height="31.194" transform="translate(868.659 553.016) rotate(45)" fill="#3975f9" opacity="0.6"/>
        <path id="Rectangle_11" data-name="Rectangle 11" d="M0,0H31.194V31.194H4a4,4,0,0,1-4-4Z" transform="translate(846.602 575.073) rotate(45)" fill="#3975f9" opacity="0.8"/>
        <rect id="Rectangle_7" data-name="Rectangle 7" width="31.194" height="31.194" transform="translate(912.774 553.016) rotate(45)" fill="#3975f9" opacity="0.6"/>
        <rect id="Rectangle_9" data-name="Rectangle 9" width="31.194" height="31.194" transform="translate(890.716 575.073) rotate(45)" fill="#3975f9" opacity="0.8"/>
        <path id="Rectangle_13" data-name="Rectangle 13" d="M0,0H31.194V27.194a4,4,0,0,1-4,4H0Z" transform="translate(912.774 597.131) rotate(45)" fill="#3975f9"/>
        <path id="Rectangle_14" data-name="Rectangle 14" d="M0,0H31.194V27.194a4,4,0,0,1-4,4H0Z" transform="translate(868.659 597.131) rotate(45)" fill="#3975f9"/>
        <path id="Rectangle_15" data-name="Rectangle 15" d="M0,0H31.194V27.194a4,4,0,0,1-4,4H0Z" transform="translate(956.889 597.131) rotate(45)" fill="#3975f9"/>
        <rect id="Rectangle_10" data-name="Rectangle 10" width="31.194" height="31.194" transform="translate(934.831 575.073) rotate(45)" fill="#3975f9" opacity="0.8"/>
        <path id="Rectangle_12" data-name="Rectangle 12" d="M0,0H27.194a4,4,0,0,1,4,4V31.194H0Z" transform="translate(978.946 575.073) rotate(45)" fill="#3975f9" opacity="0.8"/>
        <rect id="Rectangle_8" data-name="Rectangle 8" width="31.194" height="31.194" transform="translate(956.889 553.016) rotate(45)" fill="#3975f9" opacity="0.6"/>
        <path id="Rectangle_5" data-name="Rectangle 5" d="M3,0H31.194V31.194H0V3A3,3,0,0,1,3,0Z" transform="translate(890.716 530.958) rotate(45)" fill="#3975f9" opacity="0.4"/>
        <path id="Rectangle_6" data-name="Rectangle 6" d="M3,0H31.194V31.194H0V3A3,3,0,0,1,3,0Z" transform="translate(934.831 530.958) rotate(45)" fill="#3975f9" opacity="0.4"/>
        <path id="Path_276" data-name="Path 276" d="M-131.96-56h-22.4V0h22.4c15.44,0,27.2-12.16,27.2-28S-116.52-56-131.96-56Zm0,43.68h-9.6V-43.68h9.6c8.8,0,14.88,6.08,14.88,15.68S-123.16-12.32-131.96-12.32Zm40-31.2a7.274,7.274,0,0,0,7.2-7.2,7.274,7.274,0,0,0-7.2-7.2,7.274,7.274,0,0,0-7.2,7.2A7.274,7.274,0,0,0-91.96-43.52ZM-97.96,0h12V-40h-12ZM-66.2-28.32c0-1.44,1.28-2.24,3.36-2.24,2.64,0,4.24,1.44,5.36,3.52l10.24-5.52c-3.36-5.68-9.12-8.56-15.6-8.56-8.32,0-15.68,4.4-15.68,13.12,0,13.84,19.68,11.52,19.68,15.92,0,1.6-1.44,2.48-4.32,2.48-3.52,0-5.76-1.68-6.8-4.72L-80.36-8.4c3.12,6.48,9.2,9.52,17.2,9.52,8.64,0,16.64-3.92,16.64-13.12C-46.52-26.8-66.2-23.76-66.2-28.32ZM-21.72,1.12A20.421,20.421,0,0,0-3.64-9.2l-10.48-6c-1.28,2.8-4.24,4.48-7.76,4.48-5.2,0-9.04-3.76-9.04-9.28s3.84-9.28,9.04-9.28a8.283,8.283,0,0,1,7.76,4.48l10.48-6.08A20.61,20.61,0,0,0-21.72-41.12,20.723,20.723,0,0,0-42.92-20,20.723,20.723,0,0,0-21.72,1.12Zm41.28,0A20.966,20.966,0,0,0,40.76-20a20.966,20.966,0,0,0-21.2-21.12A20.966,20.966,0,0,0-1.64-20,20.966,20.966,0,0,0,19.56,1.12Zm0-11.68c-5.2,0-9.2-3.76-9.2-9.44s4-9.44,9.2-9.44,9.2,3.76,9.2,9.44S24.76-10.56,19.56-10.56ZM71.48-40,63.16-14.64,54.84-40H41.56L56.36,0h13.6l14.8-40Zm26.8,24.8h28.4a23.255,23.255,0,0,0,.48-4.8c0-12.08-8.64-21.12-20.32-21.12-12.64,0-21.28,9.2-21.28,21.12S94.04,1.12,107.72,1.12c7.6,0,13.52-2.8,17.44-8.24l-9.6-5.52a10.445,10.445,0,0,1-7.68,3.04C103.48-9.6,99.8-11.04,98.28-15.2Zm-.24-8.96c1.12-4.08,4.16-6.32,8.72-6.32,3.6,0,7.2,1.68,8.48,6.32Zm47.92-8.72V-40h-12V0h12V-18.08c0-7.92,7.04-9.92,12-9.12V-40.8C152.92-40.8,147.56-38.24,145.96-32.88Z" transform="translate(1191.545 621.958)" fill="#b9c1ce"/>
      </g>
    </g>
  </g>
</svg>
